# MagicaVoxel @ Ephtracy

# group
g tileBrown

# material
mtllib tileBrown.mtl
usemtl palette

# normals
vn -1 0 0
vn 1 0 0
vn 0 0 1
vn 0 0 -1
vn 0 -1 0
vn 0 1 0

# texcoords
vt 0.876953 0.5
vt 0.880859 0.5
vt 0.884766 0.5

# verts
v -4 0 4
v -4 0 2
v -4 0 -2
v -4 0 -4
v -4 1 4
v -4 1 2
v -4 1 -2
v -4 1 -4
v 4 0 4
v 4 0 1
v 4 0 -0
v 4 0 -1
v 4 0 -3
v 4 0 -4
v 4 1 4
v 4 1 1
v 4 1 -0
v 4 1 -1
v 4 1 -3
v 4 1 -4
v -4 0 4
v -4 1 4
v -3 0 4
v -3 1 4
v -2 0 4
v -2 1 4
v -1 0 4
v -1 1 4
v 0 0 4
v 0 1 4
v 4 0 4
v 4 1 4
v -4 0 -4
v -4 1 -4
v -2 0 -4
v -2 1 -4
v 0 0 -4
v 0 1 -4
v 1 0 -4
v 1 1 -4
v 3 0 -4
v 3 1 -4
v 4 0 -4
v 4 1 -4
v -4 0 4
v -3 0 4
v -2 0 4
v -1 0 4
v 0 0 4
v 4 0 4
v -2 0 3
v -1 0 3
v 0 0 3
v 1 0 3
v -4 0 2
v -3 0 2
v 1 0 2
v 2 0 2
v 1 0 1
v 2 0 1
v 4 0 1
v -2 0 -0
v -1 0 -0
v 0 0 -0
v 1 0 -0
v 2 0 -0
v 3 0 -0
v 4 0 -0
v -3 0 -1
v -2 0 -1
v -1 0 -1
v 0 0 -1
v 1 0 -1
v 3 0 -1
v 4 0 -1
v -4 0 -2
v -3 0 -2
v -2 0 -2
v -3 0 -3
v -2 0 -3
v 0 0 -3
v 1 0 -3
v 3 0 -3
v 4 0 -3
v -4 0 -4
v -2 0 -4
v 0 0 -4
v 1 0 -4
v 3 0 -4
v 4 0 -4
v -4 1 4
v -3 1 4
v -2 1 4
v -1 1 4
v 0 1 4
v 4 1 4
v -2 1 3
v -1 1 3
v 0 1 3
v 1 1 3
v -4 1 2
v -3 1 2
v 1 1 2
v 2 1 2
v 1 1 1
v 2 1 1
v 4 1 1
v -2 1 -0
v -1 1 -0
v 0 1 -0
v 1 1 -0
v 2 1 -0
v 3 1 -0
v 4 1 -0
v -3 1 -1
v -2 1 -1
v -1 1 -1
v 0 1 -1
v 1 1 -1
v 3 1 -1
v 4 1 -1
v -4 1 -2
v -3 1 -2
v -2 1 -2
v -3 1 -3
v -2 1 -3
v 0 1 -3
v 1 1 -3
v 3 1 -3
v 4 1 -3
v -4 1 -4
v -2 1 -4
v 0 1 -4
v 1 1 -4
v 3 1 -4
v 4 1 -4

# faces
f 5/3/1 2/3/1 1/3/1
f 6/2/1 3/2/1 2/2/1
f 6/3/1 2/3/1 5/3/1
f 7/3/1 4/3/1 3/3/1
f 7/2/1 3/2/1 6/2/1
f 8/3/1 4/3/1 7/3/1
f 9/1/2 10/1/2 15/1/2
f 10/2/2 11/2/2 16/2/2
f 15/1/2 10/1/2 16/1/2
f 11/1/2 12/1/2 17/1/2
f 16/2/2 11/2/2 17/2/2
f 12/2/2 13/2/2 18/2/2
f 17/1/2 12/1/2 18/1/2
f 13/1/2 14/1/2 19/1/2
f 18/2/2 13/2/2 19/2/2
f 19/1/2 14/1/2 20/1/2
f 23/3/3 22/3/3 21/3/3
f 24/3/3 22/3/3 23/3/3
f 25/2/3 24/2/3 23/2/3
f 26/2/3 24/2/3 25/2/3
f 27/1/3 26/1/3 25/1/3
f 28/1/3 26/1/3 27/1/3
f 29/2/3 28/2/3 27/2/3
f 30/2/3 28/2/3 29/2/3
f 31/1/3 30/1/3 29/1/3
f 32/1/3 30/1/3 31/1/3
f 33/3/4 34/3/4 35/3/4
f 35/3/4 34/3/4 36/3/4
f 35/2/4 36/2/4 37/2/4
f 37/2/4 36/2/4 38/2/4
f 37/3/4 38/3/4 39/3/4
f 39/3/4 38/3/4 40/3/4
f 39/2/4 40/2/4 41/2/4
f 41/2/4 40/2/4 42/2/4
f 41/1/4 42/1/4 43/1/4
f 43/1/4 42/1/4 44/1/4
f 51/2/5 47/2/5 46/2/5
f 51/1/5 48/1/5 47/1/5
f 52/2/5 49/2/5 48/2/5
f 52/1/5 48/1/5 51/1/5
f 53/1/5 50/1/5 49/1/5
f 53/2/5 49/2/5 52/2/5
f 54/1/5 50/1/5 53/1/5
f 55/3/5 46/3/5 45/3/5
f 56/2/5 52/2/5 51/2/5
f 56/3/5 46/3/5 55/3/5
f 56/2/5 51/2/5 46/2/5
f 56/2/5 54/2/5 53/2/5
f 56/2/5 53/2/5 52/2/5
f 57/1/5 50/1/5 54/1/5
f 57/2/5 54/2/5 56/2/5
f 58/1/5 50/1/5 57/1/5
f 59/2/5 56/2/5 55/2/5
f 59/2/5 57/2/5 56/2/5
f 59/2/5 58/2/5 57/2/5
f 60/1/5 50/1/5 58/1/5
f 60/2/5 58/2/5 59/2/5
f 61/1/5 50/1/5 60/1/5
f 62/2/5 59/2/5 55/2/5
f 63/2/5 59/2/5 62/2/5
f 64/2/5 59/2/5 63/2/5
f 65/1/5 60/1/5 59/1/5
f 65/2/5 59/2/5 64/2/5
f 66/2/5 61/2/5 60/2/5
f 66/1/5 60/1/5 65/1/5
f 67/2/5 61/2/5 66/2/5
f 68/2/5 61/2/5 67/2/5
f 69/2/5 62/2/5 55/2/5
f 70/3/5 63/3/5 62/3/5
f 70/2/5 62/2/5 69/2/5
f 71/2/5 64/2/5 63/2/5
f 71/3/5 63/3/5 70/3/5
f 72/1/5 65/1/5 64/1/5
f 72/2/5 64/2/5 71/2/5
f 73/2/5 66/2/5 65/2/5
f 73/1/5 65/1/5 72/1/5
f 73/2/5 67/2/5 66/2/5
f 74/1/5 68/1/5 67/1/5
f 74/2/5 67/2/5 73/2/5
f 75/1/5 68/1/5 74/1/5
f 76/2/5 69/2/5 55/2/5
f 77/3/5 70/3/5 69/3/5
f 77/2/5 69/2/5 76/2/5
f 78/2/5 71/2/5 70/2/5
f 78/3/5 70/3/5 77/3/5
f 78/2/5 72/2/5 71/2/5
f 78/2/5 75/2/5 74/2/5
f 78/2/5 74/2/5 73/2/5
f 78/2/5 73/2/5 72/2/5
f 79/3/5 77/3/5 76/3/5
f 79/2/5 78/2/5 77/2/5
f 80/2/5 75/2/5 78/2/5
f 80/2/5 78/2/5 79/2/5
f 81/2/5 75/2/5 80/2/5
f 82/2/5 75/2/5 81/2/5
f 83/2/5 75/2/5 82/2/5
f 84/2/5 75/2/5 83/2/5
f 85/3/5 79/3/5 76/3/5
f 85/3/5 80/3/5 79/3/5
f 86/2/5 81/2/5 80/2/5
f 86/3/5 80/3/5 85/3/5
f 87/3/5 82/3/5 81/3/5
f 87/2/5 81/2/5 86/2/5
f 88/2/5 83/2/5 82/2/5
f 88/3/5 82/3/5 87/3/5
f 89/1/5 84/1/5 83/1/5
f 89/2/5 83/2/5 88/2/5
f 90/1/5 84/1/5 89/1/5
f 92/2/6 93/2/6 97/2/6
f 93/1/6 94/1/6 97/1/6
f 94/2/6 95/2/6 98/2/6
f 97/1/6 94/1/6 98/1/6
f 95/1/6 96/1/6 99/1/6
f 98/2/6 95/2/6 99/2/6
f 99/1/6 96/1/6 100/1/6
f 91/3/6 92/3/6 101/3/6
f 97/2/6 98/2/6 102/2/6
f 101/3/6 92/3/6 102/3/6
f 92/2/6 97/2/6 102/2/6
f 99/2/6 100/2/6 102/2/6
f 98/2/6 99/2/6 102/2/6
f 100/1/6 96/1/6 103/1/6
f 102/2/6 100/2/6 103/2/6
f 103/1/6 96/1/6 104/1/6
f 101/2/6 102/2/6 105/2/6
f 102/2/6 103/2/6 105/2/6
f 103/2/6 104/2/6 105/2/6
f 104/1/6 96/1/6 106/1/6
f 105/2/6 104/2/6 106/2/6
f 106/1/6 96/1/6 107/1/6
f 101/2/6 105/2/6 108/2/6
f 108/2/6 105/2/6 109/2/6
f 109/2/6 105/2/6 110/2/6
f 105/1/6 106/1/6 111/1/6
f 110/2/6 105/2/6 111/2/6
f 106/2/6 107/2/6 112/2/6
f 111/1/6 106/1/6 112/1/6
f 112/2/6 107/2/6 113/2/6
f 113/2/6 107/2/6 114/2/6
f 101/2/6 108/2/6 115/2/6
f 108/3/6 109/3/6 116/3/6
f 115/2/6 108/2/6 116/2/6
f 109/2/6 110/2/6 117/2/6
f 116/3/6 109/3/6 117/3/6
f 110/1/6 111/1/6 118/1/6
f 117/2/6 110/2/6 118/2/6
f 111/2/6 112/2/6 119/2/6
f 118/1/6 111/1/6 119/1/6
f 112/2/6 113/2/6 119/2/6
f 113/1/6 114/1/6 120/1/6
f 119/2/6 113/2/6 120/2/6
f 120/1/6 114/1/6 121/1/6
f 101/2/6 115/2/6 122/2/6
f 115/3/6 116/3/6 123/3/6
f 122/2/6 115/2/6 123/2/6
f 116/2/6 117/2/6 124/2/6
f 123/3/6 116/3/6 124/3/6
f 117/2/6 118/2/6 124/2/6
f 120/2/6 121/2/6 124/2/6
f 119/2/6 120/2/6 124/2/6
f 118/2/6 119/2/6 124/2/6
f 122/3/6 123/3/6 125/3/6
f 123/2/6 124/2/6 125/2/6
f 124/2/6 121/2/6 126/2/6
f 125/2/6 124/2/6 126/2/6
f 126/2/6 121/2/6 127/2/6
f 127/2/6 121/2/6 128/2/6
f 128/2/6 121/2/6 129/2/6
f 129/2/6 121/2/6 130/2/6
f 122/3/6 125/3/6 131/3/6
f 125/3/6 126/3/6 131/3/6
f 126/2/6 127/2/6 132/2/6
f 131/3/6 126/3/6 132/3/6
f 127/3/6 128/3/6 133/3/6
f 132/2/6 127/2/6 133/2/6
f 128/2/6 129/2/6 134/2/6
f 133/3/6 128/3/6 134/3/6
f 129/1/6 130/1/6 135/1/6
f 134/2/6 129/2/6 135/2/6
f 135/1/6 130/1/6 136/1/6
